# xmcd
#
# Track frame offsets: 
#        183
#        13595
#        23170
#        40833
#        59470
#        73483
#        92995
#        110958
#        120458
#        132858
#        146133
#        160258
#        174408
#        195358
#        206533
#        231533
#
# Disc length: 3248 seconds
#
# Revision: 0
# Processed by: cddbd v1.5.2PL0 Copyright (c) Steve Scherf et al.
# Submitted via: ExactAudioCopy v0.99pb3
#
DISCID=ed0cae10
DTITLE=James Brown - Original Recordings
DYEAR=1992
DGENRE=R&B
TTITLE0=Think
TTITLE1=I'll Go Crazy
TTITLE2=Kansas City
TTITLE3=That's Life
TTITLE4=NightTrain
TTITLE5=There Was Time
TTITLE6=Let Yourself Go
TTITLE7=Papa's Got A Brand New Bag
TTITLE8=Please, Please, Please
TTITLE9=Try Me
TTITLE10=I Want To Be Around
TTITLE11=It May Be The LastTime
TTITLE12=Gold Sweat
TTITLE13=I Don't Mind
TTITLE14=I Feel All Right
TTITLE15=It's a Man's Man's World
EXTD=Golden Age Series - FREMUS s.a.s. Italy
EXTT0=
EXTT1=
EXTT2=
EXTT3=
EXTT4=
EXTT5=
EXTT6=
EXTT7=
EXTT8=
EXTT9=
EXTT10=
EXTT11=
EXTT12=
EXTT13=
EXTT14=
EXTT15=
PLAYORDER=
